PathFileType	4	(X/Y/Z)	Patient4_TMGait_0pt7_01_right_38.trc.trc
DataRate	CameraRate	NumFrames	NumMarkers	Units	OrigDataRate	OrigDataStartFrame	OrigNumFrames
84.848484848485	84.848484848485	4	33	mm	84.848484848485	1	       141
Frame#	Time	Sacral			L.Shoulder			Chest			R.Shoulder			Neck			R.ASIS			L.ASIS			R.Thigh.Superior			R.Thigh.Lateral			R.Thigh.Inferior			R.Patella			L.Thigh.Superior			L.Thigh.Lateral			L.Thigh.Inferior			L.Patella			L.Shank.Superior			L.Shank.Lateral			L.Shank.Inferior			R.Shank.Superior			R.Shank.Lateral			R.Shank.Inferior			R.Heel			R.Midfoot.Superior			R.Midfoot.Lateral			R.Toe			L.Heel			L.Midfoot.Lateral			L.Midfoot.Superior			L.Toe			L.Elbow			L.Wrist			R.Elbow			R.Wrist			
		X1	Y1	Z1	X2	Y2	Z2	X3	Y3	Z3	X4	Y4	Z4	X5	Y5	Z5	X6	Y6	Z6	X7	Y7	Z7	X8	Y8	Z8	X9	Y9	Z9	X10	Y10	Z10	X11	Y11	Z11	X12	Y12	Z12	X13	Y13	Z13	X14	Y14	Z14	X15	Y15	Z15	X16	Y16	Z16	X17	Y17	Z17	X18	Y18	Z18	X19	Y19	Z19	X20	Y20	Z20	X21	Y21	Z21	X22	Y22	Z22	X23	Y23	Z23	X24	Y24	Z24	X25	Y25	Z25	X26	Y26	Z26	X27	Y27	Z27	X28	Y28	Z28	X29	Y29	Z29	X30	Y30	Z30	X31	Y31	Z31	X32	Y32	Z32	X33	Y33	Z33	

1	43.390000000000	831.214867197858	1021.568277129455	439.479600682750	1046.423846335534	1437.305093625726	265.459709143264	1139.321727152310	1358.995405249252	430.332434909846	1054.602061780172	1441.883900677299	600.471149411209	1050.355648610560	1497.924440917398	420.153932348790	1049.836140315267	950.293621266403	566.488778609166	1051.191764761759	963.754542146552	291.800674457579	1130.944169169112	784.198836398053	540.191178179975	1091.606899967241	663.076170509912	613.645681847601	1184.952802911422	624.374916303732	538.602438241653	1202.661981600477	509.437324329563	560.708501740933	1091.381799108298	752.258602116332	320.604424050448	998.939661877271	640.145183860403	263.211381211532	1079.371481381239	560.407635922660	328.285486882261	1077.642232097293	491.503828227838	339.968876423099	1052.626803948767	420.687093625595	331.768620970785	965.832948235180	305.634486390301	277.587442021647	1011.464678782762	195.207874824485	353.438435983810	1123.106221788097	436.457609295426	564.426325727380	997.144591449186	403.671379278428	620.334003125478	978.882134281150	295.265512255479	570.306639808167	775.931806383645	247.389089464585	538.855210383139	939.356423129144	172.041335665512	575.250164502299	828.503661061417	174.650896349204	605.596621640364	995.318954304804	52.145589287026	587.880467938453	881.414996547599	39.543171900027	390.216313806803	960.046879461895	35.910063758558	313.795087943454	1041.735749782990	96.332203522185	345.364146846376	1171.956062783955	41.574593559699	325.107651298686	1019.153211189016	1109.699764505427	103.388488300544	1220.206362793495	946.797381534650	132.573214690378	983.789766828051	1102.667001838498	722.405108807892	1152.039584402476	904.243965132872	702.670385913977	
2	43.401785714286	829.956523330432	1021.891879615002	437.755950629084	1048.060776711816	1437.597468435770	264.742368345398	1138.847506110276	1358.990767473610	430.515876057150	1052.614042321344	1442.253084951922	599.693869578644	1050.147886331146	1498.215508724139	419.391814767817	1048.028119057383	951.400749939959	566.429567602640	1050.181164528002	963.500251042408	291.756008559837	1131.601852436065	788.751432662127	539.950380706352	1095.247705105814	666.815028595171	613.476452971316	1188.921996987731	629.863297444702	538.155617324042	1209.647525681030	516.243620645352	560.545023963435	1088.317438388829	751.370568524340	321.651112110710	995.227129063923	640.163025930316	262.851461678823	1073.987110962412	559.602627604913	328.686821697497	1071.296088344147	490.840790623358	340.262668627261	1046.016172873025	420.246129275039	331.913168360999	958.856935098513	305.726066726404	277.455358432545	1003.462896915384	195.054472398538	353.499297445219	1133.584141835564	440.429530663328	564.545633344900	1010.376041032329	400.992948282787	620.943613387549	997.779939983739	292.029765175463	571.033867424352	798.288894559064	233.302540214728	540.512451024864	965.045975800385	167.216024904288	576.208163108887	854.799638250896	163.837775152295	606.961206643368	1027.302887081223	50.981182182171	588.708119380487	872.682503019079	39.685805081040	390.130416412279	951.361611636817	35.950931907416	313.795502975825	1033.110826767322	96.341302851472	345.306599313223	1163.262620756224	41.435488657465	325.087020105035	1027.442397768845	1110.892689707551	101.297314013293	1234.376440395259	958.092025166095	133.676917901524	977.970749757594	1104.181406896423	722.719906641014	1132.224283194527	895.937498431786	707.637303926283	
3	43.413571428571	828.717463367812	1022.195166946530	436.073895235480	1049.659256594511	1437.862694753417	264.062854771237	1138.376536891712	1358.967328385443	430.719032970891	1050.655518180549	1442.589768412449	598.949095569804	1049.939443243555	1498.478011021590	418.665725109895	1046.244276197914	952.452875259565	566.381553750146	1049.213260965770	963.236041752587	291.714891068384	1132.192931131460	793.126775722416	539.723598952501	1098.680405668335	670.378735115745	613.277469437791	1192.647095415765	635.097311185218	537.698018594338	1216.270669076467	522.829840461681	560.365582453484	1085.319709656279	750.482753076133	322.668607265768	991.574323474218	640.163284358633	262.504994432160	1068.692338207435	558.791505671387	329.078035780624	1065.056741721005	490.175279342970	340.555794726444	1039.515212389307	419.797572171372	332.056696495471	951.978783621490	305.807347720017	277.331122264845	995.565679576564	194.893018622937	353.563791832553	1143.766622759507	444.240509445166	564.661755869424	1023.466984353716	398.147224055532	621.633040442738	1016.571525626497	288.689249397498	571.844599056988	820.721346449155	219.053816263774	542.350392086030	990.705041095119	162.361754285447	577.273755639788	881.171903317408	152.987646949896	608.502898892241	1059.271382472624	49.932963879621	589.679942952732	864.056260094679	39.825985231846	390.041954429811	942.776679084102	35.989298087548	313.797294386298	1024.584529261385	96.348404582164	345.255709271880	1154.669451041261	41.299706425326	325.067688417435	1035.594961440429	1112.070149064711	99.278520100578	1248.233321608321	969.271310990421	134.830123738264	972.281840021214	1105.624811159542	723.000097763960	1112.653275424805	887.902144578318	712.429093368980	
4	43.425357142857	827.525011194519	1022.441510418314	434.480798990540	1051.169328589718	1438.066779479836	263.464083997654	1137.910650814533	1358.897763758915	430.961282977062	1048.760980763285	1442.850389714743	598.275186799603	1049.725159389202	1498.673854730510	418.016725306437	1044.523643575163	953.381706517758	566.358027108055	1048.335599549630	962.951161262074	291.678328386887	1132.620786337072	797.076778040444	539.532973058428	1101.649455181933	673.557523541395	613.062101547980	1195.822804838514	639.765031862317	537.239069477687	1222.124151571859	528.955752961327	560.161102791290	1082.430645052545	749.578839686640	323.632502460839	988.003530763655	640.125144558666	262.182601401247	1063.519507749056	557.957373023095	329.448899482109	1058.963934656490	489.496080859481	340.843607608098	1033.162668088646	419.327385580976	332.196955237927	945.223327429961	305.865648217248	277.221087771881	987.799894007935	194.712791493854	353.634894106645	1153.354033487289	447.735677080940	564.793701075511	1036.334022390179	394.973352583353	622.493408894633	1035.247331892015	285.194351428783	572.821913328948	843.521881751952	204.517503774698	544.516184799812	1016.464463611318	157.554499541763	578.554421117717	907.894064432559	142.127551212756	610.365514344877	1091.357379553490	49.270515983343	590.911710147138	855.559745053292	39.959368787808	389.951182223440	934.310819714570	36.022447036761	313.801861793476	1016.174306308285	96.351303000242	345.217096984613	1146.195749819484	41.170564949043	325.051168099445	1043.508656670553	1113.212178641709	97.415583190208	1261.510132475387	980.280914638270	136.115908358875	966.805391360532	1106.932329762395	723.206373375618	1093.475084847529	880.388879210519	716.884649626151	
